<?xml version="1.0" encoding="UTF-8" standalone="no"?>
<!DOCTYPE svg PUBLIC "-//W3C//DTD SVG 1.1//EN" "http://www.w3.org/Graphics/SVG/1.1/DTD/svg11.dtd">
<svg version="1.1" xmlns="http://www.w3.org/2000/svg" xmlns:xlink="http://www.w3.org/1999/xlink" preserveAspectRatio="xMidYMid meet" viewBox="19.22802272764568 43.21577517725838 31.731092436974798 24.840336134453807" width="27.73" height="20.84"><defs><path d="M45.86 44.22C47.02 44.22 47.96 45.16 47.96 46.32C47.96 46.74 47.96 45.9 47.96 46.32C47.96 47.48 47.02 48.42 45.86 48.42C40.73 48.42 27.45 48.42 22.33 48.42C21.17 48.42 20.23 47.48 20.23 46.32C20.23 45.9 20.23 46.74 20.23 46.32C20.23 45.16 21.17 44.22 22.33 44.22C27.45 44.22 40.73 44.22 45.86 44.22Z" id="cW9YmWowg"></path><path d="M45.86 52.54C47.02 52.54 47.96 53.48 47.96 54.64C47.96 55.06 47.96 54.22 47.96 54.64C47.96 55.8 47.02 56.74 45.86 56.74C40.73 56.74 27.45 56.74 22.33 56.74C21.17 56.74 20.23 55.8 20.23 54.64C20.23 54.22 20.23 55.06 20.23 54.64C20.23 53.48 21.17 52.54 22.33 52.54C27.45 52.54 40.73 52.54 45.86 52.54Z" id="c5UiYbeU1"></path><path d="M45.86 60.85C47.02 60.85 47.96 61.8 47.96 62.96C47.96 63.38 47.96 62.54 47.96 62.96C47.96 64.12 47.02 65.06 45.86 65.06C40.73 65.06 27.45 65.06 22.33 65.06C21.17 65.06 20.23 64.12 20.23 62.96C20.23 62.54 20.23 63.38 20.23 62.96C20.23 61.8 21.17 60.85 22.33 60.85C27.45 60.85 40.73 60.85 45.86 60.85Z" id="aqjausZoC"></path></defs><g><g><use xlink:href="#cW9YmWowg" opacity="1" fill="#FCFDFE" fill-opacity="1"></use></g><g><use xlink:href="#c5UiYbeU1" opacity="1" fill="#FCFDFE" fill-opacity="1"></use></g><g><use xlink:href="#aqjausZoC" opacity="1" fill="#FCFDFE" fill-opacity="1"></use></g></g></svg>